<svg xmlns="http://www.w3.org/2000/svg" viewBox="0 0 1200 800" role="img" aria-labelledby="title desc">
<title>Budapest sfeerbeeld</title>
<desc>Stijlvol nachtbeeld van Budapest met parlement en Donau</desc>
<defs>
  <linearGradient id="sky" x1="0" y1="0" x2="0" y2="1">
    <stop offset="0" stop-color="#071a2f"/>
    <stop offset="0.55" stop-color="#0c2745"/>
    <stop offset="1" stop-color="#04101f"/>
  </linearGradient>
  <linearGradient id="gold" x1="0" y1="0" x2="1" y2="1">
    <stop offset="0" stop-color="#f1d08c"/>
    <stop offset="1" stop-color="#b98533"/>
  </linearGradient>
  <filter id="glow"><feGaussianBlur stdDeviation="6" result="blur"/><feMerge><feMergeNode in="blur"/><feMergeNode in="SourceGraphic"/></feMerge></filter>
</defs>
<rect width="1200" height="800" fill="url(#sky)"/>
<circle cx="930" cy="130" r="72" fill="#f4d9aa" opacity="0.9"/>
<g opacity="0.22" fill="none" stroke="#d5aa62" stroke-width="2">
  <path d="M80 180 C260 100 380 260 560 170 S900 80 1120 190"/>
  <path d="M40 250 C250 160 420 310 610 210 S960 120 1160 260"/>
</g>
<g transform="translate(210,230)" fill="url(#gold)" stroke="#f8ecd8" stroke-width="2" filter="url(#glow)">
  <rect x="70" y="250" width="650" height="130" rx="8"/>
  <rect x="120" y="200" width="90" height="180" rx="6"/>
  <rect x="280" y="185" width="120" height="195" rx="6"/>
  <rect x="510" y="205" width="100" height="175" rx="6"/>
  <polygon points="165,130 215,200 115,200"/>
  <polygon points="340,105 410,185 270,185"/>
  <polygon points="560,140 620,205 500,205"/>
  <rect x="360" y="60" width="60" height="320" rx="5"/>
  <polygon points="390,0 445,60 335,60"/>
  <circle cx="390" cy="115" r="42" fill="#071a2f" opacity="0.18"/>
  <g fill="#071a2f" opacity="0.30">
    <rect x="105" y="270" width="28" height="60"/><rect x="155" y="270" width="28" height="60"/><rect x="205" y="270" width="28" height="60"/>
    <rect x="300" y="260" width="30" height="70"/><rect x="350" y="260" width="30" height="70"/>
    <rect x="530" y="270" width="28" height="60"/><rect x="575" y="270" width="28" height="60"/>
  </g>
</g>
<rect y="610" width="1200" height="190" fill="#030b16"/>
<path d="M0 640 C180 610 260 670 420 645 S720 615 900 648 1110 655 1200 628 L1200 800 L0 800 Z" fill="#0b223c"/>
<g stroke="#d5aa62" stroke-width="6" fill="none" opacity="0.8">
  <path d="M120 575 C330 700 620 480 850 620 S1060 670 1160 590"/>
  <path d="M120 575 L120 650 M280 610 L280 685 M450 590 L450 665 M620 570 L620 645 M850 620 L850 695 M1040 625 L1040 700"/>
</g>
<text x="600" y="735" text-anchor="middle" fill="#f6efe3" font-family="Georgia,serif" font-size="52">Budapest wacht op ons</text>
<text x="600" y="775" text-anchor="middle" fill="#d5aa62" font-family="Arial,sans-serif" font-size="22" letter-spacing="6">SAMEN NAAR BUDAPEST</text>
</svg>