<svg xmlns="http://www.w3.org/2000/svg" viewBox="0 0 1200 800" role="img" aria-label="Budapest bij avond aan de Donau">
  <defs>
    <linearGradient id="sky" x1="0" y1="0" x2="0" y2="1">
      <stop offset="0" stop-color="#061425"/>
      <stop offset="0.45" stop-color="#102c4d"/>
      <stop offset="1" stop-color="#071a2f"/>
    </linearGradient>
    <linearGradient id="river" x1="0" y1="0" x2="1" y2="0">
      <stop offset="0" stop-color="#09213a"/>
      <stop offset="0.5" stop-color="#163c62"/>
      <stop offset="1" stop-color="#091b31"/>
    </linearGradient>
    <filter id="glow" x="-30%" y="-30%" width="160%" height="160%">
      <feGaussianBlur stdDeviation="7" result="blur"/>
      <feMerge><feMergeNode in="blur"/><feMergeNode in="SourceGraphic"/></feMerge>
    </filter>
  </defs>
  <rect width="1200" height="800" fill="url(#sky)"/>
  <circle cx="930" cy="135" r="58" fill="#f2d59a" opacity="0.92" filter="url(#glow)"/>
  <g opacity="0.35" fill="#f8e4b8">
    <circle cx="130" cy="95" r="2"/><circle cx="310" cy="150" r="1.7"/><circle cx="520" cy="80" r="2.2"/><circle cx="705" cy="135" r="1.4"/><circle cx="1080" cy="210" r="1.8"/>
  </g>
  <path d="M0 455 C210 410, 360 445, 520 410 C700 370, 875 405, 1200 360 L1200 800 L0 800 Z" fill="url(#river)"/>
  <path d="M0 560 C210 520, 380 548, 580 505 C780 462, 970 500, 1200 455 L1200 800 L0 800 Z" fill="#081827" opacity="0.55"/>
  <g fill="#03101e">
    <rect x="92" y="340" width="118" height="92"/><rect x="110" y="300" width="80" height="40"/>
    <rect x="255" y="305" width="160" height="125"/><rect x="293" y="245" width="82" height="60"/>
    <rect x="480" y="330" width="125" height="100"/><path d="M542 265 L592 330 L492 330 Z"/>
    <rect x="680" y="285" width="175" height="145"/><rect x="725" y="235" width="85" height="50"/>
    <rect x="930" y="320" width="135" height="110"/><path d="M998 245 L1058 320 L938 320 Z"/>
  </g>
  <g stroke="#d5aa62" stroke-width="5" fill="none" opacity="0.82">
    <path d="M55 468 C270 390, 480 390, 695 468"/>
    <path d="M510 468 C710 395, 930 395, 1145 468"/>
    <line x1="55" y1="468" x2="1145" y2="468"/>
    <line x1="180" y1="428" x2="180" y2="510"/><line x1="360" y1="402" x2="360" y2="510"/>
    <line x1="540" y1="426" x2="540" y2="510"/><line x1="720" y1="460" x2="720" y2="510"/>
    <line x1="900" y1="418" x2="900" y2="510"/><line x1="1080" y1="432" x2="1080" y2="510"/>
  </g>
  <g opacity="0.38" stroke="#f1d08c" stroke-width="3">
    <path d="M105 610 C300 570, 480 590, 660 555"/><path d="M720 620 C870 590, 1020 610, 1160 575"/>
  </g>
  <text x="600" y="720" text-anchor="middle" font-family="Georgia, serif" font-size="52" fill="#f6efe3" opacity="0.95">Budapest wacht op ons</text>
</svg>
